<svg xmlns="http://www.w3.org/2000/svg" xmlns:xlink="http://www.w3.org/1999/xlink" version="1.1" id="Layer_1" x="0px" y="0px" enable-background="new 0 0 512 512" xml:space="preserve" viewBox="24.47 151.79 465.53 361.21">
<path fill="#000000" opacity="1.000000" stroke="none" d=" M317.118774,378.007446   C319.731323,376.346100 322.270721,374.549469 324.987122,373.080109   C326.359528,372.337708 328.418549,372.611084 329.510895,371.666382   C331.001801,370.376984 332.927216,368.288971 332.813385,366.673920   C332.359985,360.240326 331.187500,353.857452 330.120514,346.320221   C367.693878,353.943329 405.071381,361.526672 442.689056,369.158752   C437.921265,379.849365 433.183472,390.451721 428.463043,401.061768   C420.192932,419.650299 411.906952,438.231934 403.721893,456.857849   C403.099213,458.274902 403.033600,460.019592 403.029144,461.612854   C402.982025,478.429352 403.000000,495.246033 403.000000,512.531372   C364.645782,513.000000 326.291534,513.000000 287.162048,512.683167   C290.259613,502.029938 294.149292,491.699799 298.001373,481.355682   C303.911682,465.484467 309.822205,449.613220 315.683624,433.723907   C320.716003,420.081970 325.710785,406.425842 330.614685,392.737457   C331.005219,391.647247 331.069519,389.681183 330.415558,389.098541   C326.066956,385.224487 321.481262,381.616547 317.003845,377.952606   C317.035004,377.983124 317.118774,378.007446 317.118774,378.007446  z"/>
<path fill="#000000" opacity="1.000000" stroke="none" d=" M111.468658,513.000000   C111.000000,500.506104 110.490776,487.985291 111.148773,475.526123   C111.759453,463.962860 109.617867,453.378204 104.622673,442.963287   C96.442650,425.908051 88.832085,408.578766 81.050056,391.334076   C77.752335,384.026428 74.628593,376.640289 71.366096,369.152832   C108.699509,361.573486 146.081543,353.984283 183.952209,346.295898   C182.860046,353.354309 181.916443,359.360687 181.005905,365.372040   C180.460114,368.975220 181.660095,371.032593 185.515091,372.136108   C189.498856,373.276428 193.175018,375.491364 196.974945,377.609436   C196.964157,377.982727 197.027939,377.921722 196.672821,377.959351   C192.333694,381.361389 188.174728,384.549286 184.483063,388.208588   C183.504608,389.178497 183.329544,391.823761 183.860565,393.317688   C189.110336,408.087311 194.567322,422.783539 200.003403,437.486572   C206.881241,456.089172 213.869110,474.651520 220.651245,493.288849   C223.010086,499.770966 224.897354,506.424652 227.000000,513.000000   C188.645767,513.000000 150.291550,513.000000 111.468658,513.000000  z"/>
<path fill="#000000" opacity="1.000000" stroke="none" d=" M405.468658,513.000000   C405.000000,498.342712 405.470001,483.664459 404.816193,469.036377   C404.449005,460.820221 406.834900,453.728943 410.072723,446.605896   C417.900391,429.385315 425.777588,412.187012 433.542725,394.938263   C437.080078,387.080688 440.399689,379.125122 444.271667,370.164246   C452.427521,395.387390 460.238190,419.463867 467.995819,443.557373   C475.359314,466.426941 482.667358,489.314331 489.999878,512.596924   C461.979095,513.000000 433.958221,513.000000 405.468658,513.000000  z"/>
<path fill="#000000" opacity="1.000000" stroke="none" d=" M24.468655,513.000000   C27.488489,501.683563 30.843330,490.323822 34.491623,479.059113   C43.817600,450.263641 53.302780,421.519806 62.658466,392.733887   C64.976700,385.601044 67.044617,378.386871 69.492134,370.340393   C73.198517,378.259552 76.686089,385.423035 79.924316,392.697479   C84.805748,403.663239 89.456421,414.731598 94.310654,425.709686   C98.913643,436.119629 103.699020,446.449036 108.276421,456.869965   C108.898026,458.285156 108.966415,460.025909 108.970863,461.616821   C109.017914,478.431976 109.000000,495.247375 109.000000,512.531372   C80.979103,513.000000 52.958210,513.000000 24.468655,513.000000  z"/>
<path fill="#000000" opacity="1.000000" stroke="none" d=" M209.826691,366.157257   C213.091934,364.114441 216.357162,362.071594 219.965347,359.814209   C225.507706,376.201538 231.228241,393.172913 236.997269,410.127747   C238.232971,413.759399 239.598251,417.349152 240.983978,420.927155   C244.263901,429.396027 245.274872,438.099823 245.118973,447.209930   C244.749146,468.821838 245.000000,490.444427 245.000000,512.531372   C240.310745,513.000000 235.621490,513.000000 230.368347,512.635437   C223.692902,495.829803 217.552689,479.399353 211.476822,462.945099   C203.290558,440.775696 195.467270,418.464203 186.789886,396.489410   C184.427765,390.507477 187.003128,388.114136 190.716537,384.957581   C193.095169,382.935608 194.942459,380.288544 197.027954,377.921722   C197.027939,377.921722 196.964157,377.982727 196.921875,377.994568   C198.105728,377.649963 199.677185,377.656067 200.498001,376.874146   C203.978806,373.558411 207.236710,370.008698 210.246307,366.309265   C209.916565,366.074066 209.826691,366.157257 209.826691,366.157257  z"/>
<path fill="#000000" opacity="1.000000" stroke="none" d=" M269.466125,513.000000   C269.000000,488.209991 268.521576,463.405426 269.276672,438.638428   C269.519318,430.679382 272.587921,422.679688 275.113251,414.943237   C280.474854,398.517761 286.323792,382.251282 291.986450,365.924255   C292.751617,363.718170 293.594727,361.539093 294.348907,359.490967   C297.393921,361.886108 300.464661,364.301483 303.807190,366.393494   C304.078949,366.070129 303.992065,365.983368 303.992065,365.983368   C308.179779,370.202545 312.367523,374.421722 316.837036,378.324158   C317.118774,378.007446 317.035004,377.983124 316.709900,378.234436   C318.904968,380.802856 321.425079,383.120056 323.945312,385.437103   C327.033264,388.276184 329.459869,390.403381 327.262878,395.888062   C319.406372,415.501465 312.532318,435.507690 305.247772,455.351074   C298.190094,474.576538 291.084534,493.784393 284.000000,513.000000   C279.310760,513.000000 274.621490,513.000000 269.466125,513.000000  z"/>
<path fill="#000000" opacity="1.000000" stroke="none" d=" M246.468567,513.000000   C246.000000,491.679291 245.751404,470.354462 246.102325,449.039520   C246.284378,437.981720 245.607986,427.294586 241.023132,417.020782   C235.155899,403.873474 236.330215,391.059174 243.666992,378.736237   C244.326202,377.629028 244.786041,376.403137 245.396057,375.110291   C252.962662,375.110291 260.612244,375.110291 268.669922,375.110291   C271.317993,381.068146 275.092590,386.958679 276.422089,393.357300   C277.528534,398.682404 276.041718,404.647675 275.169403,410.246185   C274.608612,413.845367 273.568054,417.549042 271.887970,420.758575   C267.996307,428.192993 267.899048,436.047363 267.949982,444.103149   C268.093231,466.755554 268.000000,489.409393 268.000000,512.531372   C260.979065,513.000000 253.958099,513.000000 246.468567,513.000000  z"/>
<path fill="#000000" opacity="1.000000" stroke="none" d=" M284.922638,324.922668   C287.315186,322.743164 289.548401,320.327850 292.202087,318.534912   C292.949829,318.029755 294.939484,319.324097 296.336670,319.853363   C296.598999,319.952728 296.731018,320.360321 296.959900,320.588928   C303.852722,327.472595 301.322754,334.738190 298.028900,342.187195   C295.905670,346.988861 294.220886,351.984436 292.175903,357.320404   C281.024139,353.356232 270.444427,349.595428 259.310242,345.637543   C260.831757,343.815826 261.851654,342.594696 263.959808,340.070618   C261.272522,340.785400 259.979431,341.129364 257.960693,341.666351   C257.960693,311.976776 257.960693,282.022980 257.960693,252.069168   C257.464386,252.072174 256.968079,252.075195 256.471771,252.078201   C256.471771,282.195221 256.471771,312.312225 256.471771,342.529510   C255.063522,342.328461 254.196655,342.204712 252.861801,342.014160   C253.346466,343.442749 253.681519,344.430298 254.155350,345.826965   C243.567078,349.599030 233.063919,353.340790 221.664124,357.401947   C218.383667,348.297943 215.041397,339.499695 212.169754,330.550476   C211.727051,329.170807 213.301315,327.018433 214.200516,325.363464   C215.497940,322.975616 217.031174,320.715912 218.926453,317.654083   C221.328125,318.765350 223.968857,319.987213 226.609589,321.209076   C226.936401,320.672516 227.263229,320.135925 227.590042,319.599335   C223.995209,317.065765 220.322327,314.634308 216.830536,311.965851   C214.100281,309.879395 211.550278,307.547852 209.002350,305.234711   C206.713531,303.156799 204.719833,300.712555 202.268234,298.864716   C198.400970,295.949951 194.031357,293.678375 190.291367,290.623932   C185.597137,286.790192 181.252945,282.512848 176.935181,278.247253   C176.176544,277.497772 176.038681,275.866333 176.036743,274.641541   C175.989731,244.819290 176.064224,214.996628 175.909515,185.175110   C175.892395,181.873596 177.663345,180.896286 180.024750,180.041931   C183.165543,178.905594 186.384781,177.983536 189.513733,176.817520   C200.005280,172.907776 210.533188,169.084473 220.927994,164.929886   C229.056808,161.680984 237.070297,158.122940 245.021439,154.455963   C252.750687,150.891296 260.254059,150.918213 267.997742,154.462128   C276.099792,158.170090 284.331726,161.605804 292.585907,164.966415   C300.067535,168.012482 307.641205,170.835190 315.201294,173.684799   C320.946838,175.850449 326.696747,178.017685 332.519775,179.959091   C335.441528,180.933258 337.114685,182.051178 337.093964,185.696518   C336.926483,215.184677 336.865173,244.675476 337.146088,274.161896   C337.187988,278.560455 334.256622,279.914307 331.923859,281.944550   C322.259399,290.355743 312.500458,298.663757 302.609528,306.807251   C297.081879,311.358337 291.185394,315.458740 285.539581,319.870331   C283.058502,321.808990 280.787964,324.017151 278.421814,326.102936   C279.343781,326.889343 274.875977,329.114075 279.747253,329.149658   C280.427032,329.432739 280.552917,329.560486 280.455078,329.939362   C274.479858,334.927338 268.728302,339.664154 262.637756,344.680176   C272.425415,348.173065 281.657867,351.467865 291.025085,354.810730   C292.254150,351.686890 293.522919,348.929993 294.433533,346.059479   C297.113739,337.610596 303.413269,329.176147 294.869904,320.527557   C294.660126,320.315216 294.359375,320.192688 294.023346,319.978821   C291.255951,321.870911 288.473724,323.773132 285.499146,325.487305   C285.178741,325.173737 285.050690,325.048187 284.922638,324.922668  M318.245239,196.004532   C317.266357,196.096039 316.090729,195.867020 315.338867,196.328476   C307.490448,201.145340 299.837433,206.292389 291.878082,210.913681   C282.212585,216.525589 272.226624,221.585922 262.566742,227.207001   C260.615112,228.342636 258.407654,230.809174 258.206757,232.848206   C257.623596,238.767090 258.000122,244.780518 258.000122,250.701889   C260.294739,251.629456 262.330475,252.452377 264.528046,253.340714   C266.302856,246.666626 267.938263,240.516724 269.750854,233.700623   C272.327972,235.419037 274.341644,236.761734 276.381500,238.121887   C277.405457,233.852402 278.357452,229.883057 279.420044,225.452469   C282.211121,226.693878 284.470856,227.698944 286.757874,228.716156   C287.433380,225.025162 288.061676,221.592178 288.852997,217.268555   C290.535126,219.204330 291.560669,220.384521 292.735748,221.736786   C292.919281,220.528488 293.092041,219.391251 293.471405,216.893723   C296.845856,221.823624 299.562042,225.791794 302.443756,230.001831   C303.625641,222.639175 304.736420,215.719391 306.011627,207.775436   C308.968140,210.529068 310.752716,212.191162 313.055939,214.336319   C313.950073,210.536087 314.727173,207.233322 315.601440,203.517456   C316.985870,204.313828 317.918732,204.850449 318.908844,205.419983   C318.908844,202.228806 318.908844,199.073105 319.706024,195.998352   C321.744141,200.832825 323.782227,205.667282 325.675720,210.158752   C326.970978,206.126968 328.425995,201.597931 330.106781,196.366074   C331.996063,198.720978 333.219543,200.245956 334.777954,202.188461   C334.777954,196.134186 334.777954,190.802872 334.777954,185.676895   C331.395203,187.503052 327.990936,189.110748 324.843353,191.120438   C322.725098,192.472946 320.969666,194.393753 318.245239,196.004532  M283.571716,211.956451   C287.572479,209.900681 291.650055,207.980103 295.557922,205.760788   C303.511993,201.243637 311.405762,196.617599 319.259796,191.928299   C322.504547,189.990982 325.666382,187.888046 328.704285,185.641785   C330.368805,184.411041 331.210541,182.865570 328.340424,181.720840   C323.038879,179.606369 317.816833,177.291458 312.505920,175.201767   C305.576416,172.475220 298.580841,169.917053 291.635162,167.231003   C281.993347,163.502274 272.083374,160.305618 262.848328,155.746490   C257.245544,152.980530 252.850616,154.546677 248.081039,156.461548   C241.597870,159.064453 235.262924,162.037384 228.774353,164.625916   C221.407532,167.564850 213.918503,170.195862 206.524521,173.068634   C198.453094,176.204666 190.429642,179.464279 181.312881,183.097366   C184.488724,185.089035 187.195343,186.856140 189.968201,188.512375   C198.465652,193.587921 206.986633,198.624130 215.502182,203.669342   C220.879410,206.855194 226.258713,210.037582 231.645355,213.207474   C238.956223,217.509720 246.209595,221.917847 253.644501,225.994492   C255.169342,226.830566 256.566071,228.471924 259.433105,226.482346   C266.923431,221.284439 275.102966,217.079697 283.571716,211.956451  M178.947067,197.556122   C180.206329,202.668976 181.465576,207.781815 183.028549,214.127838   C184.810959,208.613922 186.084366,204.674622 187.357773,200.735306   C187.784073,200.906586 188.210358,201.077866 188.636658,201.249130   C190.267380,209.841293 191.898117,218.433456 193.528854,227.025620   C193.850937,227.066055 194.173035,227.106491 194.495117,227.146912   C196.545609,222.005173 198.596100,216.863434 200.646591,211.721695   C201.060410,211.790588 201.474228,211.859482 201.888046,211.928375   C202.449951,213.524277 203.011856,215.120178 203.656906,216.952240   C204.721252,215.438812 205.537491,214.278168 206.974030,212.235519   C207.990555,215.916855 208.783401,218.788086 209.597290,221.735550   C210.949951,220.098404 212.170197,218.621506 213.832367,216.609726   C214.403137,222.565323 214.879440,227.535080 215.379456,232.752487   C218.212097,227.907303 220.943756,223.234818 224.164062,217.726501   C225.976318,222.200455 227.284271,225.429413 228.636856,228.768555   C230.547440,226.243454 232.267838,223.969696 234.542938,220.962830   C235.198456,227.692505 235.725479,233.103073 236.284653,238.843765   C237.769760,235.714737 239.088608,232.935974 241.159241,228.573227   C243.215256,235.491302 244.860565,241.027390 246.505142,246.561066   C249.427307,245.998718 250.170654,239.432327 254.999908,243.373062   C254.999908,239.825760 255.104141,236.326340 254.942291,232.839279   C254.887085,231.650192 254.515320,229.900620 253.691071,229.409683   C243.220352,223.173111 232.675095,217.058807 222.075623,211.042374   C215.954834,207.568115 209.592529,204.512009 203.534531,200.936310   C195.020889,195.911179 186.688995,190.578110 177.843079,185.106888   C178.027847,189.337662 178.192612,193.110596 178.947067,197.556122  M214.298080,328.169830   C216.992371,337.105438 219.686646,346.041016 222.400436,355.041290   C232.471481,351.433411 241.640839,348.148560 251.588852,344.584747   C240.572525,335.879364 230.239563,327.713989 220.008163,319.628906   C217.995468,322.788361 216.445694,325.221161 214.298080,328.169830  z"/>
<path fill="#000000" opacity="1.000000" stroke="none" d=" M209.959824,366.030701   C206.452530,368.801910 202.901993,371.616425 198.833344,374.841644   C194.777222,373.313354 189.977478,371.675568 185.354370,369.637146   C184.264603,369.156708 183.000580,367.237793 183.128357,366.132172   C183.867920,359.732758 184.907394,353.361481 186.084198,347.025055   C186.298615,345.870544 187.406265,344.580475 188.458435,343.931824   C195.495193,339.593567 202.628632,335.412170 210.125290,330.944733   C213.049240,339.693268 215.863647,348.114044 218.873734,357.120270   C216.052811,359.788849 213.047470,362.631866 209.934402,365.816101   C209.826691,366.157257 209.916565,366.074066 209.959824,366.030701  z"/>
<path fill="#000000" opacity="1.000000" stroke="none" d=" M304.124023,366.111816   C303.328766,365.152588 302.660004,363.898926 301.619659,363.192596   C295.798004,359.239868 294.765564,354.536743 297.886505,348.096527   C300.433868,342.839966 301.842285,337.031464 303.916565,330.999969   C311.425293,335.447052 318.650177,339.690460 325.822845,344.020386   C326.688934,344.543213 327.766388,345.452148 327.909760,346.320221   C329.118713,353.639832 330.132935,360.991577 331.246185,368.610596   C326.554199,370.475708 322.093964,372.149323 317.720886,374.026123   C315.296173,375.066742 313.698547,374.502960 311.941681,372.575653   C309.753815,370.175537 307.128204,368.174408 304.341858,365.992188   C303.992065,365.983368 304.078949,366.070129 304.124023,366.111816  z"/>
<path fill="#000000" opacity="1.000000" stroke="none" d=" M245.616333,351.758667   C256.905762,343.834320 266.235596,351.129150 276.294434,354.562012   C274.275757,360.264252 272.551331,365.754547 270.313873,371.027191   C269.743011,372.372406 267.587402,373.785309 266.089294,373.866638   C260.129028,374.190399 254.127533,374.218903 248.171631,373.857269   C246.534119,373.757812 244.196762,372.272766 243.566910,370.821747   C241.350510,365.715912 239.737152,360.348297 237.666992,354.427917   C240.285431,353.580231 242.777954,352.773315 245.616333,351.758667  z"/>
<path fill="#000000" opacity="1.000000" stroke="none" d=" M280.112549,329.113159   C281.364349,327.613098 282.804688,326.304901 284.583832,324.959686   C285.050690,325.048187 285.178741,325.173737 285.281128,325.733582   C283.729889,327.341309 282.204346,328.514771 280.678772,329.688202   C280.552917,329.560486 280.427032,329.432739 280.112549,329.113159  z"/>
</svg>