<svg xmlns="http://www.w3.org/2000/svg" xmlns:xlink="http://www.w3.org/1999/xlink" version="1.1" id="Layer_1" x="0px" y="0px" enable-background="new 0 0 512 512" xml:space="preserve" viewBox="24.47 207.78 465.53 305.22">
<path fill="#000000" opacity="1.000000" stroke="none" d=" M317.118774,378.007446   C319.731323,376.346100 322.270721,374.549469 324.987122,373.080109   C326.359528,372.337708 328.418549,372.611084 329.510895,371.666382   C331.001801,370.376984 332.927216,368.288971 332.813385,366.673920   C332.359985,360.240326 331.187500,353.857452 330.120514,346.320221   C367.693878,353.943329 405.071381,361.526672 442.689056,369.158752   C437.921265,379.849365 433.183472,390.451721 428.463043,401.061768   C420.192932,419.650299 411.906952,438.231934 403.721893,456.857849   C403.099213,458.274902 403.033600,460.019592 403.029144,461.612854   C402.982025,478.429352 403.000000,495.246033 403.000000,512.531372   C364.645782,513.000000 326.291534,513.000000 287.162048,512.683167   C290.259613,502.029938 294.149292,491.699799 298.001373,481.355682   C303.911682,465.484467 309.822205,449.613220 315.683624,433.723907   C320.716003,420.081970 325.710785,406.425842 330.614685,392.737457   C331.005219,391.647247 331.069519,389.681183 330.415558,389.098541   C326.066956,385.224487 321.481262,381.616547 317.003845,377.952606   C317.035004,377.983124 317.118774,378.007446 317.118774,378.007446  z"/>
<path fill="#000000" opacity="1.000000" stroke="none" d=" M111.468658,513.000000   C111.000000,500.506104 110.490776,487.985291 111.148773,475.526123   C111.759453,463.962860 109.617867,453.378204 104.622673,442.963287   C96.442650,425.908051 88.832085,408.578766 81.050056,391.334076   C77.752335,384.026428 74.628593,376.640289 71.366096,369.152832   C108.699509,361.573486 146.081543,353.984283 183.952209,346.295898   C182.860046,353.354309 181.916443,359.360687 181.005905,365.372040   C180.460114,368.975220 181.660095,371.032593 185.515091,372.136108   C189.498856,373.276428 193.175018,375.491364 196.974945,377.609436   C196.964157,377.982727 197.027939,377.921722 196.672821,377.959351   C192.333694,381.361389 188.174728,384.549286 184.483063,388.208588   C183.504608,389.178497 183.329544,391.823761 183.860565,393.317688   C189.110336,408.087311 194.567322,422.783539 200.003403,437.486572   C206.881241,456.089172 213.869110,474.651520 220.651245,493.288849   C223.010086,499.770966 224.897354,506.424652 227.000000,513.000000   C188.645767,513.000000 150.291550,513.000000 111.468658,513.000000  z"/>
<path fill="#000000" opacity="1.000000" stroke="none" d=" M405.468658,513.000000   C405.000000,498.342712 405.470001,483.664459 404.816193,469.036377   C404.449005,460.820221 406.834900,453.728943 410.072723,446.605896   C417.900391,429.385315 425.777588,412.187012 433.542725,394.938263   C437.080078,387.080688 440.399689,379.125122 444.271667,370.164246   C452.427521,395.387390 460.238190,419.463867 467.995819,443.557373   C475.359314,466.426941 482.667358,489.314331 489.999878,512.596924   C461.979095,513.000000 433.958221,513.000000 405.468658,513.000000  z"/>
<path fill="#000000" opacity="1.000000" stroke="none" d=" M24.468655,513.000000   C27.488489,501.683563 30.843330,490.323822 34.491623,479.059113   C43.817600,450.263641 53.302780,421.519806 62.658466,392.733887   C64.976700,385.601044 67.044617,378.386871 69.492134,370.340393   C73.198517,378.259552 76.686089,385.423035 79.924316,392.697479   C84.805748,403.663239 89.456421,414.731598 94.310654,425.709686   C98.913643,436.119629 103.699020,446.449036 108.276421,456.869965   C108.898026,458.285156 108.966415,460.025909 108.970863,461.616821   C109.017914,478.431976 109.000000,495.247375 109.000000,512.531372   C80.979103,513.000000 52.958210,513.000000 24.468655,513.000000  z"/>
<path fill="#000000" opacity="1.000000" stroke="none" d=" M303.992065,365.983368   C308.179779,370.202545 312.367523,374.421722 316.837036,378.324158   C317.118774,378.007446 317.035004,377.983124 316.709900,378.234436   C318.904968,380.802856 321.425079,383.120056 323.945312,385.437103   C327.033264,388.276184 329.459869,390.403381 327.262878,395.888062   C319.406372,415.501465 312.532318,435.507690 305.247772,455.351074   C298.190094,474.576538 291.084534,493.784393 284.000000,513.000000   C279.310760,513.000000 274.621490,513.000000 269.466125,513.000000   C269.000000,488.209991 268.521576,463.405426 269.276672,438.638428   C269.519318,430.679382 272.587921,422.679688 275.113251,414.943237   C280.474854,398.517761 286.323792,382.251282 291.986450,365.924255   C292.751617,363.718170 293.594727,361.539093 294.348907,359.490967   C297.393921,361.886108 300.464661,364.301483 303.807190,366.393494   C304.078949,366.070129 303.992065,365.983368 303.992065,365.983368  z"/>
<path fill="#000000" opacity="1.000000" stroke="none" d=" M209.826691,366.157257   C213.091934,364.114441 216.357162,362.071594 219.965347,359.814209   C225.507706,376.201538 231.228241,393.172913 236.997269,410.127747   C238.232971,413.759399 239.598251,417.349152 240.983978,420.927155   C244.263901,429.396027 245.274872,438.099823 245.118973,447.209930   C244.749146,468.821838 245.000000,490.444427 245.000000,512.531372   C240.310745,513.000000 235.621490,513.000000 230.368347,512.635437   C223.692902,495.829803 217.552689,479.399353 211.476822,462.945099   C203.290558,440.775696 195.467270,418.464203 186.789886,396.489410   C184.427765,390.507477 187.003128,388.114136 190.716537,384.957581   C193.095169,382.935608 194.942459,380.288544 197.027954,377.921722   C197.027939,377.921722 196.964157,377.982727 196.921875,377.994568   C198.105728,377.649963 199.677185,377.656067 200.498001,376.874146   C203.978806,373.558411 207.236710,370.008698 210.246307,366.309265   C209.916565,366.074066 209.826691,366.157257 209.826691,366.157257  z"/>
<path fill="#000000" opacity="1.000000" stroke="none" d=" M246.468567,513.000000   C246.000000,491.679291 245.751404,470.354462 246.102325,449.039520   C246.284378,437.981720 245.607986,427.294586 241.023132,417.020782   C235.155899,403.873474 236.330215,391.059174 243.666992,378.736237   C244.326202,377.629028 244.786041,376.403137 245.396057,375.110291   C252.962662,375.110291 260.612244,375.110291 268.669922,375.110291   C271.317993,381.068146 275.092590,386.958679 276.422089,393.357300   C277.528534,398.682404 276.041718,404.647675 275.169403,410.246185   C274.608612,413.845367 273.568054,417.549042 271.887970,420.758575   C267.996307,428.192993 267.899048,436.047363 267.949982,444.103149   C268.093231,466.755554 268.000000,489.409393 268.000000,512.531372   C260.979065,513.000000 253.958099,513.000000 246.468567,513.000000  z"/>
<path fill="#000000" opacity="1.000000" stroke="none" d=" M230.552002,309.432312   C228.452301,308.622284 226.387222,307.703827 224.247131,307.020233   C212.210938,303.175507 199.916275,300.006470 188.162216,295.441895   C168.061493,287.635925 150.465225,275.345245 133.207596,262.630219   C131.402618,261.300354 129.843857,259.636261 127.494736,257.517395   C157.037231,235.090439 189.077499,218.275940 225.750717,210.992111   C298.746155,196.494202 360.001923,234.427185 389.093506,258.599121   C373.496735,270.645782 357.295868,281.359711 339.706451,290.147003   C322.074829,298.955414 303.650269,305.051025 284.375275,308.648163   C284.440216,309.359650 284.391357,309.665161 284.500275,309.896454   C288.616364,318.638092 288.562164,318.562927 277.899597,326.633698   C270.902222,331.930145 264.095978,337.479126 256.963470,343.104828   C246.078217,334.655304 235.086899,326.123413 223.763550,317.333801   C226.237488,314.772644 224.221695,309.265320 230.623840,309.428345   C236.945572,310.554169 242.564209,311.574310 248.223984,311.918579   C254.194534,312.281769 260.220673,312.274719 266.192139,311.918915   C271.623657,311.595215 277.014313,310.586456 282.423004,309.879700   C276.640076,309.482971 270.962585,310.076538 265.270569,310.300323   C260.064819,310.505035 254.840515,310.410736 249.629517,310.265137   C243.267563,310.087372 236.910934,309.718506 230.552002,309.432312  M228.020218,277.217896   C236.273056,287.484985 246.235931,293.329895 260.161957,292.154480   C276.975189,290.735321 292.365387,273.392212 289.209106,254.069519   C286.181427,235.534195 265.286591,221.717789 246.629150,227.593140   C226.959076,233.787369 216.096909,258.232697 228.020218,277.217896  z"/>
<path fill="#000000" opacity="1.000000" stroke="none" d=" M304.124023,366.111816   C303.328766,365.152588 302.660004,363.898926 301.619659,363.192596   C295.798004,359.239868 294.765564,354.536743 297.886505,348.096527   C300.433868,342.839966 301.842285,337.031464 303.916565,330.999969   C311.425293,335.447052 318.650177,339.690460 325.822845,344.020386   C326.688934,344.543213 327.766388,345.452148 327.909760,346.320221   C329.118713,353.639832 330.132935,360.991577 331.246185,368.610596   C326.554199,370.475708 322.093964,372.149323 317.720886,374.026123   C315.296173,375.066742 313.698547,374.502960 311.941681,372.575653   C309.753815,370.175537 307.128204,368.174408 304.341858,365.992188   C303.992065,365.983368 304.078949,366.070129 304.124023,366.111816  z"/>
<path fill="#000000" opacity="1.000000" stroke="none" d=" M209.959824,366.030701   C206.452530,368.801910 202.901993,371.616425 198.833344,374.841644   C194.777222,373.313354 189.977478,371.675568 185.354370,369.637146   C184.264603,369.156708 183.000580,367.237793 183.128357,366.132172   C183.867920,359.732758 184.907394,353.361481 186.084198,347.025055   C186.298615,345.870544 187.406265,344.580475 188.458435,343.931824   C195.495193,339.593567 202.628632,335.412170 210.125290,330.944733   C213.049240,339.693268 215.863647,348.114044 218.873734,357.120270   C216.052811,359.788849 213.047470,362.631866 209.934402,365.816101   C209.826691,366.157257 209.916565,366.074066 209.959824,366.030701  z"/>
<path fill="#000000" opacity="1.000000" stroke="none" d=" M267.723694,351.295105   C270.723450,352.480957 273.409149,353.411011 276.328430,354.421936   C274.286682,360.217987 272.570190,365.709961 270.343079,370.986420   C269.771698,372.340118 267.629883,373.786346 266.139740,373.864868   C260.013062,374.187744 253.848877,374.193115 247.723312,373.859558   C246.249954,373.779297 244.159790,372.252502 243.576782,370.873657   C241.407257,365.742615 239.747421,360.396088 237.676682,354.505859   C247.509583,351.474548 256.462616,344.017792 267.723694,351.295105  z"/>
<path fill="#000000" opacity="1.000000" stroke="none" d=" M234.074066,328.919373   C240.911209,334.015930 247.748322,339.112488 255.869171,345.165985   C243.771133,349.506470 233.324738,353.254395 221.951920,357.334656   C219.636459,351.443359 217.311722,345.559357 215.017883,339.663361   C214.612152,338.620483 214.562073,337.375549 213.963165,336.481567   C208.970947,329.029968 215.521408,324.266632 218.210724,318.681152   C218.462738,318.157745 221.089554,318.103485 222.034637,318.719635   C224.471283,320.308228 226.583084,322.395050 228.761810,324.793976   C228.573044,325.432800 228.447128,325.560486 228.056305,325.462524   C225.134262,323.464172 222.477112,321.691467 219.762024,319.880096   C218.448822,322.051971 217.133240,324.041473 216.016693,326.137054   C215.213181,327.645172 213.756485,329.601593 214.167358,330.831482   C216.890488,338.982391 220.039505,346.990967 222.978287,354.854279   C232.559280,351.406342 241.680206,348.123962 251.284210,344.667755   C245.043442,339.464172 239.189240,334.582916 233.519897,329.506165   C233.827866,329.180237 233.950974,329.049805 234.074066,328.919373  z"/>
<path fill="#000000" opacity="1.000000" stroke="none" d=" M284.922638,324.922668   C287.315277,322.743011 289.548645,320.327606 292.202515,318.534546   C292.950073,318.029480 294.939911,319.324402 296.337128,319.854126   C296.599365,319.953552 296.731232,320.361267 296.960022,320.589905   C303.849823,327.474274 301.323822,334.740051 298.028717,342.189606   C295.904846,346.991180 294.219818,351.986816 292.175232,357.320374   C281.020782,353.355377 270.439819,349.594238 258.366058,345.302460   C266.026367,339.310730 272.618988,334.154083 279.756348,329.151245   C280.427032,329.432739 280.552917,329.560486 280.455078,329.939362   C274.479858,334.927338 268.728302,339.664154 262.637756,344.680176   C272.425385,348.173065 281.657867,351.467865 291.025085,354.810730   C292.254150,351.686890 293.522919,348.929993 294.433533,346.059479   C297.113739,337.610596 303.413269,329.176147 294.869904,320.527557   C294.660126,320.315216 294.359375,320.192688 294.023346,319.978821   C291.255737,321.871033 288.473602,323.773193 285.499146,325.487305   C285.178741,325.173737 285.050690,325.048187 284.922638,324.922668  z"/>
<path fill="#000000" opacity="1.000000" stroke="none" d=" M280.112549,329.113159   C281.364349,327.613098 282.804688,326.304901 284.583832,324.959686   C285.050690,325.048187 285.178741,325.173737 285.281128,325.733582   C283.729889,327.341309 282.204346,328.514771 280.678772,329.688202   C280.552917,329.560486 280.427032,329.432739 280.112549,329.113159  z"/>
<path fill="#000000" opacity="1.000000" stroke="none" d=" M228.887909,325.113647   C230.662567,326.045990 232.248260,327.169830 233.954010,328.606506   C233.950974,329.049805 233.827866,329.180237 233.266296,329.290344   C231.325607,328.076080 229.823410,326.882111 228.321198,325.688171   C228.447128,325.560486 228.573044,325.432800 228.887909,325.113647  z"/>
<path fill="#000000" opacity="1.000000" stroke="none" d=" M270.987793,260.665771   C269.370209,265.994171 267.056854,270.256226 261.676636,272.009491   C255.150650,274.136169 247.362259,270.817932 245.278275,264.716492   C242.235764,255.808655 246.401611,248.819855 252.702942,246.107330   C262.506683,241.887146 271.501709,251.019394 270.987793,260.665771  z"/>
</svg>