<svg version="1.1" id="Layer_1" xmlns="http://www.w3.org/2000/svg" xmlns:xlink="http://www.w3.org/1999/xlink" x="0px" y="0px"
	 width="100%" viewBox="0 0 512 560" enable-background="new 0 0 512 560" xml:space="preserve">
<path fill="#000000" opacity="1.000000" stroke="none" 
	d="
M263.095032,181.745239 
	C293.932922,180.876282 319.518311,191.890045 340.267578,213.668228 
	C352.457214,226.462372 360.678680,241.755890 364.360535,259.254578 
	C370.797150,289.845734 365.421509,318.038025 346.210754,342.883606 
	C331.549042,361.845825 312.501007,374.296051 288.708954,379.529175 
	C276.325317,382.252960 263.951813,383.115936 251.677094,381.080139 
	C227.154449,377.013153 206.387329,365.635895 190.141708,346.521179 
	C181.773315,336.674866 175.465530,325.639771 171.432404,313.371552 
	C165.540527,295.449310 164.981827,277.307739 169.202866,258.907593 
	C174.711807,234.893127 187.687012,215.815750 207.225937,201.179382 
	C218.063278,193.061295 230.226624,187.654297 243.502594,184.445984 
	C249.857437,182.910217 256.177032,182.188873 263.095032,181.745239 
M337.250977,330.745239 
	C346.930939,316.489471 352.222748,300.495178 352.442749,283.527313 
	C352.712158,262.751312 346.349243,243.603607 332.787750,227.405136 
	C316.059143,207.423691 294.390747,197.283936 268.486176,196.337616 
	C254.134888,195.813385 240.593689,199.325867 227.753128,205.783600 
	C210.969406,214.224426 198.604004,226.963745 190.218277,243.672653 
	C179.544754,264.940125 178.365005,287.005463 185.704742,309.382507 
	C190.776291,324.844482 199.772644,337.969452 212.680923,348.095856 
	C224.893143,357.676178 238.524704,363.514008 254.060974,366.327637 
	C266.010376,368.491730 277.306091,367.283539 288.477478,364.540405 
	C308.579681,359.604340 324.490234,347.906525 337.250977,330.745239 
z"/>
<path fill="#000000" opacity="1.000000" stroke="none" 
	d="
M499.301575,322.878174 
	C498.332977,327.505096 497.401398,331.700226 496.416412,335.882751 
	C495.669220,339.055420 493.534607,340.129852 490.833008,338.542114 
	C485.763275,335.562592 480.128510,334.123749 474.730164,332.045258 
	C471.848724,330.935852 470.595642,329.467010 471.503387,326.006927 
	C477.057709,304.834656 476.329041,283.163452 475.422394,261.629639 
	C475.094421,253.839981 474.188965,245.732452 471.590729,238.156250 
	C470.372406,234.603851 471.688202,232.682648 474.730164,231.535278 
	C480.301697,229.433823 486.043518,227.862198 491.335815,224.940475 
	C494.524963,223.179840 496.329712,225.521332 496.875458,228.521667 
	C498.414215,236.981384 500.245605,245.420044 501.169678,253.952789 
	C503.214691,272.835938 502.811615,291.774780 501.199432,310.680634 
	C500.862732,314.629120 499.238403,318.404602 499.301575,322.878174 
z"/>
<path fill="#000000" opacity="1.000000" stroke="none" 
	d="
M58.245964,260.008789 
	C56.712044,278.713409 56.286442,296.907166 59.992088,315.018158 
	C60.749954,318.722168 60.820805,322.547546 62.052158,326.225586 
	C62.922951,328.826660 62.224995,331.124939 59.117496,332.091705 
	C53.429241,333.861359 47.819870,335.759644 42.543987,338.688202 
	C39.824917,340.197540 37.583363,339.116516 36.731991,335.565308 
	C31.903376,315.424011 30.263193,294.962891 30.832413,274.340759 
	C31.262075,258.774658 32.972401,243.315765 36.753429,228.139801 
	C37.578407,224.828568 39.660076,224.130524 42.339046,225.112183 
	C48.087864,227.218704 53.729717,229.618042 59.408611,231.914169 
	C62.357376,233.106445 62.618839,235.275360 61.796413,238.043945 
	C59.712902,245.057800 59.635780,252.416275 58.245964,260.008789 
z"/>
<path fill="#000000" opacity="1.000000" stroke="none" 
	d="
M385.070312,455.057251 
	C393.050995,449.315094 400.589935,443.594482 407.575073,437.178619 
	C410.210632,434.757843 412.621094,434.460327 415.215393,437.415771 
	C419.623352,442.437347 425.632935,445.509857 431.156525,449.672791 
	C427.672150,455.699493 422.107147,459.212555 417.246185,463.296509 
	C396.349335,480.853027 372.958527,494.173645 347.317200,503.511200 
	C343.122284,505.038818 338.775696,506.144958 334.541748,507.572174 
	C331.499725,508.597595 329.849152,507.398010 329.866791,504.448883 
	C329.901947,498.563873 328.013916,493.006073 327.241608,487.262482 
	C326.792450,483.922363 327.908722,481.981079 330.767914,481.113434 
	C350.096252,475.248047 367.979919,466.398193 385.070312,455.057251 
z"/>
<path fill="#000000" opacity="1.000000" stroke="none" 
	d="
M171.816254,94.880318 
	C155.648010,103.286217 140.906418,113.105690 127.630051,125.083687 
	C122.724792,129.509247 122.181984,129.275803 116.882401,124.859390 
	C112.442505,121.159393 107.662415,117.867638 102.813957,114.230843 
	C105.579483,107.677185 111.500366,104.434166 116.299011,100.334442 
	C134.879135,84.460495 155.888748,72.474594 178.396606,63.142151 
	C185.265289,60.294186 192.292908,57.727123 199.550217,55.891899 
	C202.299210,55.196735 203.289307,56.230072 203.305634,58.796181 
	C203.340851,64.332344 204.789963,69.641518 206.133728,74.933083 
	C207.224274,79.227547 205.670441,81.649071 201.663544,82.821350 
	C191.433472,85.814293 181.766205,90.197632 171.816254,94.880318 
z"/>
<path fill="#000000" opacity="1.000000" stroke="none" 
	d="
M402.725433,122.334961 
	C385.284302,107.762306 366.609802,95.953995 345.639008,87.901024 
	C340.859314,86.065567 336.168915,84.061340 331.224976,82.640610 
	C328.077942,81.736275 326.653961,79.868523 327.369598,75.884613 
	C328.329926,70.538216 329.955750,65.254288 329.833344,59.686298 
	C329.758484,56.282024 331.511230,55.136089 335.094910,56.205456 
	C358.657349,63.236465 380.478638,73.845505 400.615845,87.897034 
	C410.004272,94.448181 419.193909,101.278305 427.420074,109.316162 
	C428.755188,110.620750 429.964294,111.862518 430.756073,114.121132 
	C424.954102,118.513107 418.919647,122.832298 413.346954,127.730972 
	C411.792511,129.097397 409.571869,128.299805 407.920593,126.760864 
	C406.345398,125.292801 404.645844,123.958130 402.725433,122.334961 
z"/>
<path fill="#000000" opacity="1.000000" stroke="none" 
	d="
M206.306946,484.524109 
	C205.153824,492.496857 203.887878,500.112366 202.462845,508.684967 
	C163.981796,497.354523 130.679077,478.523773 101.884796,450.020721 
	C108.900230,445.200287 114.889694,440.829163 120.202965,435.583954 
	C122.072899,433.737946 124.288704,435.744446 125.878975,437.156860 
	C139.970703,449.672455 155.328003,460.321045 172.150131,468.850281 
	C181.461166,473.571228 191.028915,477.657928 201.010498,480.731537 
	C203.115784,481.379791 205.202530,481.905975 206.306946,484.524109 
z"/>
<path fill="#000000" opacity="1.000000" stroke="none" 
	d="
M435.158997,213.982391 
	C417.041656,204.501419 407.489136,182.811295 410.235138,163.382935 
	C413.429382,140.783447 431.036072,124.445793 452.346039,120.823830 
	C472.798676,117.347572 494.482208,128.266617 503.979279,146.953949 
	C517.824036,174.196213 506.250549,206.078812 477.566711,217.386765 
	C463.106659,223.087296 449.012451,221.678482 435.158997,213.982391 
M421.691071,186.767639 
	C427.895294,201.042404 438.920990,209.661652 454.104309,211.492065 
	C484.501373,215.156555 508.133057,188.156662 498.936646,157.913620 
	C493.919800,141.415344 478.731812,129.879272 461.698853,129.240601 
	C430.923157,128.086670 410.487152,157.531158 421.691071,186.767639 
z"/>
<path fill="#000000" opacity="1.000000" stroke="none" 
	d="
M36.067169,203.882309 
	C17.647200,181.842621 20.286436,152.292007 38.957676,134.263168 
	C48.488922,125.059853 60.402328,119.857498 73.132393,120.086609 
	C93.424316,120.451813 112.414574,130.556168 120.440819,153.191467 
	C129.881577,179.815887 117.848633,203.716827 97.087097,214.819992 
	C77.625923,225.227707 54.083778,222.432541 36.067169,203.882309 
M40.024055,146.514786 
	C33.205528,156.221710 30.415956,166.981430 33.042526,178.566452 
	C37.151146,196.688324 48.676090,208.188950 66.900764,211.265579 
	C82.026291,213.819016 95.454384,209.107712 105.561394,196.871613 
	C112.550232,188.410538 115.293579,178.748337 114.795868,167.738953 
	C113.994514,150.012665 101.578964,134.825012 85.140518,130.703659 
	C67.372284,126.248909 51.984905,131.080460 40.024055,146.514786 
z"/>
<path fill="#000000" opacity="1.000000" stroke="none" 
	d="
M216.791504,53.389828 
	C219.300064,37.276527 227.019913,24.958111 240.486328,16.502085 
	C265.399994,0.857941 298.173492,10.456199 311.167542,36.239639 
	C325.787262,65.248772 311.043488,99.179749 279.574005,107.620087 
	C261.898682,112.360741 243.682068,108.226295 229.341080,92.443871 
	C219.316589,81.411774 215.841965,68.378357 216.791504,53.389828 
M306.009338,46.430916 
	C299.560455,25.498262 277.905670,12.865600 253.958069,20.091660 
	C230.072464,27.299025 218.496429,54.564796 229.251907,77.212234 
	C240.456894,100.806190 270.742279,107.440277 291.017822,92.646660 
	C306.822144,81.115387 310.489075,64.036858 306.009338,46.430916 
z"/>
<path fill="#000000" opacity="1.000000" stroke="none" 
	d="
M216.767639,499.312988 
	C219.817017,477.524445 231.877365,463.122223 251.983093,456.627258 
	C269.587830,450.940247 289.518921,454.750580 304.673584,471.852448 
	C324.020081,493.684814 319.942596,529.645630 294.390991,546.316345 
	C268.269653,563.358765 234.005264,553.384521 220.845352,525.041504 
	C217.143051,517.067749 216.263184,508.497925 216.767639,499.312988 
M230.037231,485.517181 
	C228.001556,488.060516 227.247971,491.265381 226.548950,494.214691 
	C220.215454,520.937805 239.835938,546.292786 267.205231,545.830811 
	C292.992737,545.395386 312.495026,523.146118 307.194031,495.496490 
	C304.316559,480.487762 291.868744,466.991943 273.404816,463.950256 
	C255.094849,460.933990 237.965271,470.368835 230.037231,485.517181 
z"/>
<path fill="#000000" opacity="1.000000" stroke="none" 
	d="
M452.008820,343.659485 
	C470.064728,340.587982 484.494049,347.177551 496.568329,359.243866 
	C508.716736,371.384277 511.875397,387.041443 508.893921,403.133240 
	C505.755646,420.071472 495.361694,432.515900 479.153229,439.331970 
	C455.947418,449.090576 429.496490,440.695923 416.669006,418.996460 
	C399.500488,389.953522 414.650635,354.186493 445.355469,345.469513 
	C447.429871,344.880615 449.502991,344.287048 452.008820,343.659485 
M437.090820,358.607452 
	C419.312775,370.476410 415.501678,388.764832 420.049316,405.129547 
	C425.257263,423.870422 444.139893,437.471313 466.892151,433.769135 
	C492.991913,429.522217 508.220337,402.326721 497.997650,377.292938 
	C488.432404,353.869110 460.532501,344.065247 437.090820,358.607452 
z"/>
<path fill="#000000" opacity="1.000000" stroke="none" 
	d="
M85.478409,441.942749 
	C68.597519,445.455750 53.669529,442.019592 40.915840,431.079834 
	C30.433348,422.088257 24.685894,410.518066 23.645903,396.502899 
	C21.650843,369.616974 41.556717,346.855469 67.736656,343.162659 
	C83.498528,340.939362 97.097084,346.693817 108.607040,357.381073 
	C129.374207,376.663940 128.387131,411.172485 107.915390,429.861847 
	C101.625648,435.604004 94.340675,439.882996 85.478409,441.942749 
M114.705711,392.545715 
	C115.591995,386.158020 113.433334,380.304474 110.817772,374.805511 
	C102.053772,356.380035 79.127670,345.830658 57.638626,355.035828 
	C38.759338,363.123047 29.134285,381.956360 32.772923,400.264862 
	C37.370644,423.399261 54.472252,434.689148 74.783249,434.533936 
	C97.798210,434.358093 116.409195,413.700806 114.705711,392.545715 
z"/>
<path fill="#000000" opacity="1.000000" stroke="none" 
	d="
M209.090622,307.746094 
	C234.638641,323.950073 266.194733,312.892212 281.308868,293.469879 
	C290.007996,282.291138 296.178131,269.476990 295.704193,254.557434 
	C295.646027,252.726624 295.639282,250.885620 295.759308,249.059235 
	C296.215057,242.124817 298.304626,240.591202 305.212585,241.541885 
	C311.220459,242.368683 317.259430,243.902481 322.627686,238.894348 
	C324.773315,236.892654 327.277832,238.885773 326.979675,242.234756 
	C323.473969,281.610229 300.730743,314.437500 260.112854,326.826050 
	C242.435089,332.217773 225.811371,330.520386 209.938110,321.190948 
	C205.435699,318.544678 201.513687,315.208923 199.045746,310.478027 
	C198.303864,309.055908 197.177032,307.508179 198.702942,305.902863 
	C200.018799,304.518494 201.725525,304.485199 203.344711,305.089752 
	C205.197769,305.781616 206.948776,306.746796 209.090622,307.746094 
z"/>
</svg>